<svg width="45" height="32" viewBox="0 0 45 32" fill="none" xmlns="http://www.w3.org/2000/svg">
<path fill-rule="evenodd" clip-rule="evenodd" d="M8.35969 10.0792C9.57392 10.5739 10.9532 10.0083 11.4471 8.82014C11.9448 7.63576 11.3754 6.25904 10.1612 5.76681C8.97 5.28217 7.5856 5.85918 7.09044 7.04863C6.59528 8.23174 7.16849 9.59581 8.35969 10.0792Z" fill="#0B0C0C"/>
<path fill-rule="evenodd" clip-rule="evenodd" d="M3.01293 13.1781C4.22844 13.6741 5.60517 13.1072 6.10033 11.919C6.59804 10.7346 6.02868 9.35792 4.81317 8.86443C3.62325 8.38106 2.23885 8.95933 1.74369 10.1488C1.24853 11.3306 1.82173 12.6947 3.01293 13.1781Z" fill="#0B0C0C"/>
<path fill-rule="evenodd" clip-rule="evenodd" d="M4.5361 17.799C5.03382 16.6147 4.46445 15.2379 3.25022 14.7444C2.05902 14.2611 0.67462 14.8381 0.178181 16.0275C-0.316979 17.2106 0.256229 18.5747 1.44743 19.0568C2.66294 19.5528 4.04094 18.986 4.5361 17.799Z" fill="#0B0C0C"/>
<path fill-rule="evenodd" clip-rule="evenodd" d="M14.3266 11.9423C15.5409 12.437 16.9201 11.8714 17.414 10.6832C17.9117 9.49886 17.3424 8.12214 16.1281 7.62864C14.937 7.14527 13.5526 7.72228 13.0574 8.91299C12.5622 10.0948 13.1354 11.4589 14.3266 11.9423Z" fill="#0B0C0C"/>
<path fill-rule="evenodd" clip-rule="evenodd" d="M35.9483 10.0792C37.1395 9.59581 37.7127 8.23174 37.2163 7.04863C36.7211 5.85918 35.338 5.28217 34.1455 5.76681C32.9313 6.25904 32.3632 7.63576 32.8596 8.82014C33.3548 10.0083 34.7328 10.5739 35.9483 10.0792Z" fill="#0B0C0C"/>
<path fill-rule="evenodd" clip-rule="evenodd" d="M41.2949 13.1781C42.4861 12.6947 43.0593 11.3306 42.5642 10.1488C42.069 8.95933 40.6846 8.38106 39.4934 8.86443C38.2792 9.35792 37.7098 10.7346 38.2075 11.919C38.7014 13.1072 40.0807 13.6741 41.2949 13.1781Z" fill="#0B0C0C"/>
<path fill-rule="evenodd" clip-rule="evenodd" d="M44.1285 16.0275C43.6333 14.8381 42.2489 14.2611 41.0577 14.7444C39.8435 15.2379 39.2741 16.6147 39.7718 17.799C40.2657 18.986 41.645 19.5528 42.8592 19.0568C44.0517 18.576 44.6249 17.2106 44.1285 16.0275Z" fill="#0B0C0C"/>
<path fill-rule="evenodd" clip-rule="evenodd" d="M29.9806 11.9423C31.1718 11.4589 31.745 10.0948 31.2485 8.91299C30.7547 7.72228 29.3703 7.14527 28.1791 7.62864C26.9648 8.12214 26.3955 9.49886 26.8919 10.6832C27.3871 11.8714 28.7651 12.437 29.9806 11.9423Z" fill="#0B0C0C"/>
<path fill-rule="evenodd" clip-rule="evenodd" d="M20.8986 5.91433C20.9869 6.02948 21.0905 6.13071 21.207 6.21675L19.4925 11.3314C19.4912 11.3377 19.4886 11.344 19.4873 11.3503L19.4848 11.3554L19.4861 11.3567C19.4054 11.611 19.3619 11.8831 19.3619 12.164C19.3619 13.547 20.3958 14.6897 21.7392 14.8858C21.7584 14.8883 21.7789 14.8921 21.7994 14.8946C21.9145 14.9098 22.0297 14.9187 22.1487 14.9187C22.2677 14.9187 22.3841 14.9098 22.498 14.8946C22.5184 14.8921 22.5389 14.8883 22.5581 14.8858C23.9015 14.6897 24.9354 13.547 24.9354 12.164C24.9354 11.8831 24.8919 11.611 24.8125 11.3567V11.3554L24.8113 11.3503C24.81 11.344 24.8074 11.3377 24.8049 11.3314L23.0904 6.21675C23.2068 6.13071 23.3104 6.02948 23.4 5.91433L23.4064 5.908L26.3914 7.45808V3.10648L23.4102 4.04032L23.4013 4.03146C23.3181 3.92391 23.2209 3.82647 23.1121 3.74296L23.1032 3.7341L24.3033 0L22.1487 0.00126537L19.994 0L21.1942 3.7341L21.1852 3.74296C21.0765 3.82647 20.9792 3.92391 20.896 4.03146L20.8871 4.04032L17.9059 3.10648V7.45808L20.8922 5.908L20.8986 5.91433Z" fill="#0B0C0C"/>
<path fill-rule="evenodd" clip-rule="evenodd" d="M39.4762 23.0931C38.9465 22.5819 38.4449 21.6392 38.0534 20.2004L36.4975 25.3239C37.4443 24.6798 38.1737 24.2635 39.0092 24.2446C37.5288 27.3979 35.6787 28.2102 34.4798 27.9913C33.0161 27.7256 32.343 26.4349 32.5708 25.3404C32.9073 23.789 34.5169 23.3854 35.2679 25.1898C36.7074 22.2896 34.2674 21.3848 32.6975 22.244C35.108 19.8651 35.3844 17.7507 33.4383 15.1921C30.7258 17.242 30.6951 19.2729 31.9144 22.1289C30.3304 20.3358 27.8674 21.2988 28.7579 24.1952C29.8992 22.4465 31.4116 23.5461 31.1736 25.2075C30.9727 26.6538 29.042 27.823 26.6353 27.6155C23.1883 27.3068 22.9836 24.9532 22.8966 23.0058C23.7436 22.8501 25.2701 23.6283 26.5713 25.4353L27.0511 20.0005C25.636 21.4595 24.3488 21.7366 22.9197 21.7822C23.3956 20.3143 25.5823 17.9089 25.5823 17.9089H18.7229C18.7229 17.9089 20.9096 20.3143 21.3856 21.7822C19.9564 21.7366 18.6692 21.4595 17.2541 20.0005L17.7326 25.4353C19.0351 23.6283 20.5603 22.8514 21.4086 23.0058C21.3229 24.9532 21.1181 27.3068 17.6699 27.6155C15.2632 27.823 13.3312 26.6538 13.1316 25.2075C12.8936 23.5461 14.406 22.4465 15.5485 24.1952C16.4378 21.2988 13.9735 20.3358 12.3908 22.1289C13.6101 19.2729 13.5781 17.242 10.8669 15.1921C8.92083 17.7507 9.1972 19.8651 11.6077 22.244C10.0378 21.3848 7.59912 22.2896 9.03598 25.1898C9.78832 23.3854 11.3992 23.789 11.7344 25.3404C11.9609 26.4349 11.2879 27.7269 9.82542 27.9913C8.62655 28.2102 6.77769 27.3979 5.29605 24.2446C6.13155 24.2635 6.86086 24.6798 7.80768 25.3239L6.25182 20.2004C5.8603 21.6392 5.35875 22.5819 4.82904 23.0931C4.47078 22.0567 4.52196 21.3064 4.84055 19.693L1.63161 20.8243C3.33588 23.126 4.9877 26.3577 6.34395 31.9987C11.1215 31.323 16.4826 30.9434 22.1494 30.9434C27.8162 30.9434 33.1811 31.323 37.9613 32C39.3175 26.3577 40.968 23.126 42.6736 20.8243L39.4634 19.693C39.7832 21.3064 39.8331 22.0567 39.4762 23.0931Z" fill="#0B0C0C"/>
</svg>
